<svg width="151" height="151" viewBox="0 0 151 151" fill="none" xmlns="http://www.w3.org/2000/svg">
<path fill-rule="evenodd" clip-rule="evenodd" d="M75.8202 149.033C116.689 149.033 149.82 115.902 149.82 75.0332C149.82 34.1644 116.689 1.03357 75.8202 1.03357C34.9513 1.03357 1.82056 34.1644 1.82056 75.0332C1.82056 115.902 34.9513 149.033 75.8202 149.033ZM75.8202 150.033C117.241 150.033 150.82 116.454 150.82 75.0332C150.82 33.6121 117.241 0.0335693 75.8202 0.0335693C34.3991 0.0335693 0.820557 33.6121 0.820557 75.0332C0.820557 116.454 34.3991 150.033 75.8202 150.033Z" fill="#CE1211"/>
<path fill-rule="evenodd" clip-rule="evenodd" d="M75.8203 149.033C101.54 149.033 122.391 128.183 122.391 102.463C122.391 76.7424 101.54 55.8922 75.8203 55.8922C50.1002 55.8922 29.25 76.7424 29.25 102.463C29.25 128.183 50.1002 149.033 75.8203 149.033ZM75.8203 150.033C102.093 150.033 123.391 128.735 123.391 102.463C123.391 76.1902 102.093 54.8922 75.8203 54.8922C49.5479 54.8922 28.25 76.1902 28.25 102.463C28.25 128.735 49.5479 150.033 75.8203 150.033Z" fill="#CE1211"/>
<path fill-rule="evenodd" clip-rule="evenodd" d="M75.8201 149.033C89.5119 149.033 100.611 137.934 100.611 124.242C100.611 110.55 89.5119 99.4504 75.8201 99.4504C62.1282 99.4504 51.0288 110.55 51.0288 124.242C51.0288 137.934 62.1282 149.033 75.8201 149.033ZM75.8201 150.033C90.0642 150.033 101.611 138.486 101.611 124.242C101.611 109.998 90.0642 98.4504 75.8201 98.4504C61.5759 98.4504 50.0288 109.998 50.0288 124.242C50.0288 138.486 61.5759 150.033 75.8201 150.033Z" fill="#CE1211"/>
</svg>
