<svg width="152" height="152" viewBox="0 0 152 152" fill="none" xmlns="http://www.w3.org/2000/svg">
<path d="M76.0678 151.432C117.489 151.432 151.067 117.854 151.067 76.4325C151.067 35.0114 117.489 1.43286 76.0678 1.43286C34.6466 1.43286 1.06812 35.0114 1.06812 76.4325C1.06812 117.854 34.6466 151.432 76.0678 151.432Z" stroke="#CE1211" stroke-miterlimit="10"/>
<path d="M76.0676 132.682C107.134 132.682 132.317 107.499 132.317 76.4326C132.317 45.3667 107.134 20.1829 76.0676 20.1829C45.0017 20.1829 19.8179 45.3667 19.8179 76.4326C19.8179 107.499 45.0017 132.682 76.0676 132.682Z" stroke="#CE1211" stroke-miterlimit="10"/>
<path d="M76.0677 113.932C96.7783 113.932 113.568 97.143 113.568 76.4325C113.568 55.7219 96.7783 38.9326 76.0677 38.9326C55.3571 38.9326 38.5679 55.7219 38.5679 76.4325C38.5679 97.143 55.3571 113.932 76.0677 113.932Z" stroke="#CE1211" stroke-miterlimit="10"/>
<path d="M76.0675 95.1825C86.4228 95.1825 94.8175 86.7878 94.8175 76.4325C94.8175 66.0772 86.4228 57.6826 76.0675 57.6826C65.7123 57.6826 57.3176 66.0772 57.3176 76.4325C57.3176 86.7878 65.7123 95.1825 76.0675 95.1825Z" stroke="#CE1211" stroke-miterlimit="10"/>
</svg>
