<svg width="102" height="38" viewBox="0 0 102 38" fill="none" xmlns="http://www.w3.org/2000/svg">
<g opacity="0.5">
<path d="M0.0571289 37.9396H38.9508L42.2148 34.6634C43.9951 32.8483 45.5358 31.2958 45.6271 31.2045C48.0808 28.6702 66.4549 10.4282 66.5576 10.4282C66.6603 10.4282 66.706 10.9305 66.7288 12.3917L66.763 14.3665L68.3608 14.4807V24.5264L66.763 24.6405L66.7288 26.741C66.7174 27.9054 66.7402 28.8871 66.7973 28.9442C66.8543 29.0013 70.1639 29.0355 74.1583 29.0355C81.7818 29.0469 82.4552 29.0013 84.5094 28.499C86.8261 27.9282 88.2299 26.3643 88.5494 24.0127C88.6521 23.3049 88.2984 22.0606 87.7848 21.2501C87.2028 20.3255 85.9816 19.435 84.8176 19.0583C84.4752 18.9442 84.6578 18.7273 85.4452 18.3049C86.712 17.6314 87.3511 16.9236 87.6593 15.9191C87.8875 15.1542 87.8989 14.6405 87.7049 13.7958C87.3169 12.1063 86.1756 10.9419 84.3953 10.3939C82.6948 9.88023 82.1813 9.8574 74.6605 9.8574C68.201 9.8574 67.4934 9.83457 67.4249 9.67475C67.3793 9.53777 68.6347 8.21357 72.0014 4.84598C74.5463 2.30032 76.6348 0.177025 76.6348 0.119947C76.6348 0.0742853 59.402 0.0400391 38.346 0.0400391H0.0571289L0.0571289 37.9396ZM13.1244 6.94644C15.3156 7.31174 16.9818 7.81402 18.6595 8.60169C19.0247 8.77293 18.8877 9.1953 17.8149 11.0446C17.2101 12.0834 16.7193 12.9853 16.7193 13.0309C16.7193 13.088 16.6166 13.225 16.5025 13.3277C16.2628 13.5446 16.0917 13.5218 15.2928 13.1679C13.9461 12.5629 12.9875 12.3117 11.481 12.1291C9.72349 11.935 8.31976 12.2318 7.70348 12.951C6.90461 13.8643 8.19422 14.9601 11.3555 16.0218C14.5053 17.0834 15.7265 17.6428 16.959 18.6017C17.872 19.3095 18.8877 20.6223 18.8877 21.1131C18.8877 21.1816 18.9904 21.33 19.1045 21.4328C19.31 21.6268 19.3214 21.6154 19.4013 21.2501C19.4469 21.0446 19.5496 20.725 19.6295 20.5309C19.7779 20.1999 19.9719 19.6862 20.3029 18.7844C20.5539 18.1108 20.8507 17.3688 21.0104 16.9693C21.1017 16.7752 21.1702 16.5355 21.1702 16.4442C21.1702 16.3414 21.2159 16.2387 21.2729 16.193C21.33 16.1588 21.4099 15.9761 21.4555 15.7821C21.5012 15.588 21.6039 15.3026 21.6952 15.1314C21.7865 14.9602 21.8549 14.7433 21.8549 14.6405C21.8549 14.5492 21.9006 14.4236 21.9577 14.3551C22.0033 14.298 22.1403 13.967 22.243 13.6245C22.3571 13.2821 22.5055 12.8369 22.5853 12.6542C22.6652 12.4601 22.8478 12.0035 22.9848 11.6268C23.1331 11.2501 23.3157 10.7478 23.407 10.5081C23.4983 10.2798 23.6353 9.89165 23.7266 9.65192C24.0233 8.84142 24.2287 8.31631 24.457 7.74553L24.6967 7.17475L28.0063 7.1405L31.3159 7.11767L31.5327 7.54005C31.6583 7.77977 31.8637 8.28206 31.9892 8.65877C32.1262 9.03548 32.343 9.62909 32.4685 9.97156C32.6055 10.314 32.7539 10.7592 32.7995 10.9419C32.8452 11.1359 32.9479 11.3871 33.0163 11.5127C33.0848 11.6382 33.256 12.072 33.393 12.483C33.8038 13.7159 33.9522 14.1268 34.0549 14.3665C34.2147 14.7433 34.4771 15.4396 34.8652 16.5355C35.0706 17.0949 35.3445 17.8711 35.4929 18.2478C35.8238 19.0812 36.0407 19.709 36.4058 20.7707C36.5542 21.2273 36.7254 21.6839 36.7939 21.7981C36.8509 21.9236 37.0107 22.3346 37.1362 22.7227C37.2618 23.1108 37.4786 23.6017 37.6042 23.8072L37.8324 24.1839L37.8552 15.6793L37.8895 7.17475H42.8539C47.9781 7.18617 48.971 7.25466 50.6714 7.73411C51.379 7.92818 52.6686 8.47612 52.9083 8.6816C52.9996 8.76151 53.1365 8.83 53.205 8.83C53.4561 8.83 54.9511 10.4738 55.2935 11.1245C56.0125 12.5172 56.138 13.1337 56.1494 15.3369C56.1494 17.6428 55.9897 18.3391 55.168 19.7318C54.6087 20.6793 54.312 21.0218 53.4675 21.6725C51.71 23.0309 49.9525 23.5446 46.7912 23.6245C45.6614 23.6474 44.6685 23.6702 44.6 23.6702C44.4859 23.6702 44.4516 24.4465 44.4516 27.1976C44.4516 29.8232 44.4174 30.7593 44.3147 30.8163C44.0979 30.9533 33.1419 30.8734 32.9707 30.7364C32.9022 30.6793 32.8109 30.4853 32.7767 30.3141C32.7424 30.1428 32.5941 29.6405 32.4343 29.2067C32.2745 28.7615 32.1148 28.2478 32.0691 28.0424C32.0349 27.8483 31.9322 27.6542 31.8523 27.6314C31.7724 27.5972 31.3501 27.6542 30.9165 27.757C29.7524 28.0424 26.2373 28.0309 25.0048 27.7341C24.2744 27.5629 24.0918 27.5515 24.0119 27.6771C23.9663 27.757 23.7608 28.3506 23.5668 28.9784C23.1103 30.4282 22.9277 30.862 22.7451 30.8734C22.5968 30.8848 16.1715 30.8734 15.9889 30.862C15.852 30.862 16.0118 30.0857 16.2172 29.7661C16.434 29.4465 16.2286 29.2752 15.9433 29.5264C15.6694 29.7775 13.9803 30.6109 13.3298 30.8163C12.5538 31.0561 10.6707 31.3072 9.5523 31.3186C8.35399 31.3186 6.6193 31.136 5.64924 30.8962C3.84607 30.4625 1.02719 29.3095 0.890239 28.9556C0.856002 28.8871 1.24403 28.0081 1.73476 27.015C2.682 25.12 3.19556 24.241 3.34392 24.241C3.38957 24.241 3.86889 24.4579 4.39387 24.7318C5.30687 25.1999 5.77478 25.3825 7.01874 25.7478C7.33829 25.8392 8.12575 25.8962 9.13004 25.8962C10.9218 25.8848 11.3441 25.7707 11.9375 25.12C12.2114 24.8232 12.2685 24.6634 12.2685 24.1725C12.2685 23.636 12.2342 23.5446 11.8348 23.1908C11.6065 22.9853 11.2299 22.7455 11.0131 22.6542C10.7963 22.5743 10.4881 22.4487 10.3284 22.3688C10.1686 22.2889 9.73491 22.1291 9.35829 22.015C4.54223 20.5994 2.06572 18.9213 1.16414 16.4784C0.719052 15.2798 0.730465 13.2935 1.17555 11.9693C1.66629 10.5195 2.48799 9.49211 3.89172 8.5332C4.99873 7.79119 6.10574 7.32315 7.5323 7.00352C8.73061 6.72955 11.6864 6.70671 13.1244 6.94644ZM79.3053 14.2524C79.5564 14.378 79.8531 14.6177 79.9787 14.7775C80.2526 15.1656 80.3553 15.9876 80.1841 16.5012C79.9102 17.3346 79.2026 17.6314 77.2967 17.6885C76.3153 17.7113 76.0299 17.6885 75.893 17.5515C75.6647 17.3232 75.6419 14.3209 75.8702 14.0926C75.9729 13.9898 76.3952 13.967 77.4337 13.9898C78.5863 14.0127 78.9515 14.0697 79.3053 14.2524ZM79.7847 21.3186C80.4694 21.7296 80.789 22.757 80.5151 23.6245C80.1727 24.6862 79.5108 24.9487 77.3082 24.9031L75.7789 24.8688L75.7446 23.2136C75.7104 21.3871 75.7446 21.0789 76.0185 21.0218C76.1212 20.999 76.9315 21.0104 77.8217 21.0446C79.1113 21.0903 79.4993 21.1474 79.7847 21.3186Z" fill="#959595"/>
<path d="M44.5087 12.3802C44.4745 12.4716 44.4631 13.83 44.4745 15.3939L44.5087 18.2478L45.1364 18.225C47.9439 18.1565 48.9367 17.7684 49.5302 16.5355C50.1693 15.1885 49.7014 13.4761 48.5145 12.8597C47.8982 12.5401 47.1222 12.3688 45.8554 12.3003C44.8054 12.2318 44.5658 12.2547 44.5087 12.3802ZM27.7324 15.8163C27.6981 16.0218 27.5954 16.3757 27.5041 16.5926C27.4242 16.8095 27.2645 17.3003 27.1617 17.6771C27.059 18.0538 26.8993 18.5218 26.808 18.7273C26.7167 18.9213 26.6482 19.1497 26.6482 19.241C26.6482 19.3209 26.4998 19.8118 26.3172 20.3255C26.1346 20.8277 25.952 21.4556 25.9064 21.7067C25.8379 22.1291 25.8493 22.1634 26.2145 22.3118C26.477 22.4259 27.059 22.4716 28.0747 22.4716C29.3187 22.4716 29.6268 22.4373 29.8779 22.2661C30.2089 22.0492 30.2089 21.8666 29.9007 21.1017C29.7067 20.6108 29.4214 19.6862 29.3301 19.2524C29.2845 19.0469 29.2046 18.8529 29.1475 18.8186C29.0905 18.7729 29.0448 18.6131 29.0448 18.4533C29.0448 18.2935 28.9763 18.0081 28.8964 17.814C28.8051 17.6086 28.6568 17.1634 28.5541 16.8209C28.4514 16.4784 28.3258 16.0332 28.2688 15.8506C28.1318 15.3597 27.8237 15.3483 27.7324 15.8163ZM90.8091 12.0492L90.8433 14.2524L91.7221 14.2866C92.5324 14.3209 92.6123 14.3437 92.6693 14.572C92.7036 14.709 92.715 17.0035 92.7036 19.6748L92.6693 24.5264L91.9846 24.5606C90.6721 24.6177 90.7863 24.3894 90.7863 26.8666C90.7863 28.7159 90.8091 29.0355 90.9575 29.0355C91.0488 29.0355 93.4796 29.0469 96.3556 29.0469H101.571V24.6405L99.9163 24.572L99.9391 19.4693L99.9733 14.3665L101.571 14.2524L101.605 12.0492L101.628 9.85741H90.7863L90.8091 12.0492Z" fill="#959595"/>
</g>
</svg>
