<svg width="170" height="24" viewBox="0 0 170 24" fill="none" xmlns="http://www.w3.org/2000/svg">
<rect x="7.86621" y="9.09814" width="3.70909" height="13.7868" fill="#222222"/>
<rect y="5.65149" width="3.70909" height="17.2335" fill="#222222"/>
<rect x="19.4414" y="0.894836" width="2.52988" height="19.4413" transform="rotate(90 19.4414 0.894836)" fill="#CE1211"/>
<rect x="15.7322" y="5.65149" width="3.70909" height="17.2335" fill="#222222"/>
<path d="M33.2754 3.35583V22.9807H36.0385V3.35583H43.8078V0.894836H25.4736V3.35583H33.2754Z" fill="#222222"/>
<path d="M55.3337 20.5828L53.5133 19.0368C52.473 20.2989 50.1975 20.9614 48.4096 20.9614C45.3539 20.9614 42.8508 19.0999 42.5583 16.071H56.2439C56.8615 9.88695 53.1232 7.04733 48.2146 7.04733C43.371 7.04733 39.8927 10.4233 39.8927 15.1245C39.8927 20.2042 43.371 23.3593 48.3446 23.3593C50.8477 23.3593 53.6108 22.4759 55.3012 20.5828H55.3337ZM42.5583 13.9255C43.0784 10.8966 45.4839 9.38212 48.2796 9.38212C51.4328 9.38212 53.5783 10.9281 53.6758 13.9255H42.5583Z" fill="#222222"/>
<path d="M72.5726 20.993L70.8172 19.2577C69.6795 20.3935 68.1516 20.8983 66.6238 20.8983C63.5031 20.8983 60.87 18.8475 60.87 15.1876C60.87 11.6538 63.4706 9.50833 66.6563 9.50833C68.0866 9.50833 69.582 9.9816 70.6872 11.0859L72.4101 9.38212C70.6872 7.77301 68.8018 7.04733 66.5913 7.04733C61.9102 7.04733 58.2044 10.0132 58.2044 15.1876C58.2044 20.362 62.0077 23.3593 66.5913 23.3593C68.8018 23.3593 70.8498 22.6337 72.5401 20.9614L72.5726 20.993Z" fill="#222222"/>
<path d="M77.4881 0.894836H74.8875V22.9807H77.5531V14.7143C77.5531 11.8747 79.3735 9.50833 82.3642 9.50833C85.2898 9.50833 86.6876 11.2437 86.6876 14.2726V22.9807H89.3532V14.2726C89.3532 9.9816 87.3053 7.04733 82.7868 7.04733C80.7063 7.07888 78.9184 7.93077 77.4881 9.9816V0.894836Z" fill="#222222"/>
<path d="M111.73 4.83874V22.9807H114.525V0.894836H111.145L103.213 12.2533L95.2486 0.894836H91.8353V22.9807H94.6635V4.77564L102.888 16.0394H103.473L111.73 4.83874Z" fill="#222222"/>
<path d="M133.557 22.9807V7.3944H130.956L130.923 10.234C129.688 8.02542 127.51 7.04733 124.975 7.04733C120.424 7.04733 116.718 9.9185 116.718 15.1876C116.718 20.2673 120.326 23.3593 124.942 23.3593C127.153 23.3593 129.591 22.3497 130.858 20.2358L130.923 22.9807H133.557ZM125.072 9.50833C132.874 9.47678 132.841 20.993 125.072 20.993C121.886 20.993 119.286 18.7213 119.286 15.2822C119.286 11.6223 121.886 9.50833 125.072 9.50833Z" fill="#222222"/>
<path d="M141.808 2.85102L139.11 3.13498V7.33129H135.892V9.53988H139.11V18.0587C139.11 21.4663 140.703 23.454 144.181 23.3593C145.254 23.3278 146.261 23.0754 147.302 22.6021L146.521 20.4566C145.774 20.8037 145.026 21.0561 144.311 21.0561C142.361 21.0561 141.775 19.8887 141.775 18.0587V9.53988H146.749V7.33129H141.808V2.85102Z" fill="#222222"/>
<path d="M149.23 22.9807H151.895V7.42595H149.23V22.9807Z" fill="#222222"/>
<path d="M153.951 22.9176V22.9807H156.877L161.46 16.6705L165.979 22.9807H169.034V22.9176L163.151 14.9667L168.579 7.48905V7.3944H165.556L161.46 13.2945L157.299 7.3944H154.341V7.48905L159.77 14.9667L153.951 22.9176Z" fill="#222222"/>
<path d="M148.839 2.56705C148.839 3.7029 149.685 4.23927 150.595 4.23927C151.44 4.23927 152.383 3.73445 152.383 2.5986C152.383 1.46276 151.44 0.894836 150.595 0.894836C149.685 0.894836 148.839 1.46276 148.839 2.56705Z" fill="#CE1211"/>
</svg>
