<svg width="1334" height="1097" viewBox="0 0 1334 1097" fill="none" xmlns="http://www.w3.org/2000/svg">
<mask id="mask0_304_15" style="mask-type:alpha" maskUnits="userSpaceOnUse" x="-1287" y="-135" width="2621" height="1224">
<rect x="22" y="-22" width="2576.89" height="1179.47" transform="matrix(1 0 0 -1 -1286.89 1045)" fill="#C4C4C4" stroke="#CE1211" stroke-width="44"/>
</mask>
<g mask="url(#mask0_304_15)">
<circle cx="9.09082" cy="1087.4" r="783.909" fill="white"/>
<path d="M11.9643 -85.2007C659.414 -85.2007 1184.28 439.661 1184.28 1087.11C1184.28 1734.56 659.414 2259.42 11.9643 2259.42C-635.486 2259.42 -1160.35 1734.56 -1160.35 1087.11C-1160.35 439.661 -635.486 -85.2007 11.9643 -85.2007Z" stroke="white" stroke-miterlimit="10"/>
<path d="M11.9643 12.492C605.46 12.492 1086.58 493.615 1086.58 1087.11C1086.58 1680.61 605.46 2161.73 11.9643 2161.73C-581.532 2161.73 -1062.65 1680.61 -1062.65 1087.11C-1062.65 493.615 -581.532 12.492 11.9643 12.492Z" stroke="white" stroke-miterlimit="10"/>
<path d="M11.9643 110.185C551.506 110.185 988.891 547.57 988.891 1087.11C988.891 1626.65 551.506 2064.04 11.9643 2064.04C-527.577 2064.04 -964.962 1626.65 -964.962 1087.11C-964.962 547.57 -527.577 110.185 11.9643 110.185Z" stroke="white" stroke-miterlimit="10"/>
<path d="M11.9643 207.877C497.552 207.877 891.198 601.524 891.198 1087.11C891.198 1572.7 497.552 1966.35 11.9643 1966.35C-473.623 1966.35 -867.27 1572.7 -867.27 1087.11C-867.27 601.524 -473.623 207.877 11.9643 207.877Z" stroke="white" stroke-miterlimit="10"/>
<path d="M11.9643 305.57C443.598 305.57 793.506 655.478 793.506 1087.11C793.506 1518.74 443.598 1868.65 11.9643 1868.65C-419.669 1868.65 -769.577 1518.74 -769.577 1087.11C-769.577 655.478 -419.669 305.57 11.9643 305.57Z" stroke="white" stroke-miterlimit="10"/>
<path d="M11.9643 403.263C389.644 403.263 695.813 709.432 695.813 1087.11C695.813 1464.79 389.644 1770.96 11.9643 1770.96C-365.715 1770.96 -671.884 1464.79 -671.884 1087.11C-671.884 709.432 -365.715 403.263 11.9643 403.263Z" stroke="white" stroke-miterlimit="10"/>
<path d="M11.9643 500.955C335.689 500.955 598.12 763.386 598.12 1087.11C598.12 1410.84 335.689 1673.27 11.9643 1673.27C-311.761 1673.27 -574.192 1410.84 -574.192 1087.11C-574.192 763.386 -311.761 500.955 11.9643 500.955Z" stroke="white" stroke-miterlimit="10"/>
<path d="M11.9643 598.648C281.735 598.648 500.428 817.34 500.428 1087.11C500.428 1356.88 281.735 1575.57 11.9643 1575.57C-257.807 1575.57 -476.499 1356.88 -476.499 1087.11C-476.499 817.34 -257.807 598.648 11.9643 598.648Z" stroke="white" stroke-miterlimit="10"/>
<path d="M11.9643 696.341C227.781 696.341 402.735 871.295 402.735 1087.11C402.735 1302.93 227.781 1477.88 11.9643 1477.88C-203.852 1477.88 -378.806 1302.93 -378.806 1087.11C-378.806 871.295 -203.852 696.341 11.9643 696.341Z" stroke="white" stroke-miterlimit="10"/>
<path d="M11.9643 794.033C173.827 794.033 305.042 925.249 305.042 1087.11C305.042 1248.97 173.827 1380.19 11.9643 1380.19C-149.898 1380.19 -281.114 1248.97 -281.114 1087.11C-281.114 925.249 -149.898 794.033 11.9643 794.033Z" stroke="white" stroke-miterlimit="10"/>
<path d="M11.9643 891.726C119.873 891.726 207.35 979.203 207.35 1087.11C207.35 1195.02 119.873 1282.5 11.9643 1282.5C-95.944 1282.5 -183.421 1195.02 -183.421 1087.11C-183.421 979.203 -95.944 891.726 11.9643 891.726Z" stroke="white" stroke-miterlimit="10"/>
<path d="M11.9643 989.419C65.9185 989.419 109.657 1033.16 109.657 1087.11C109.657 1141.07 65.9185 1184.8 11.9643 1184.8C-41.9898 1184.8 -85.7283 1141.07 -85.7283 1087.11C-85.7283 1033.16 -41.9898 989.419 11.9643 989.419Z" stroke="white" stroke-miterlimit="10"/>
</g>
</svg>
